<svg xmlns="http://www.w3.org/2000/svg" width="240" height="200" viewBox="0 0 240 200">
 <defs><linearGradient id="scales" x1="0" y1="0" x2="1" y2="1"><stop stop-color="#9fd477"/><stop offset=".45" stop-color="#347d60"/><stop offset="1" stop-color="#183e43"/></linearGradient><linearGradient id="wing" x1="0" y1="0" x2="1" y2="1"><stop stop-color="#63bba1"/><stop offset="1" stop-color="#214c54"/></linearGradient><filter id="gl"><feGaussianBlur stdDeviation="4" result="b"/><feMerge><feMergeNode in="b"/><feMergeNode in="SourceGraphic"/></feMerge></filter></defs>
 <ellipse cx="120" cy="182" rx="96" ry="9" fill="#071b1b" opacity=".38"/>
 <g stroke="#142e33" stroke-width="5" stroke-linejoin="round">
  <path d="M94 103 32 48 22 55 33 96 74 128Z" fill="url(#wing)"/><path d="M147 102 207 43 218 51 207 95 171 128Z" fill="url(#wing)"/>
  <path d="M47 62 67 92 39 84M200 60 179 91 207 84" fill="none" stroke="#b5e2a5" stroke-width="3"/>
  <path d="M43 149 27 160 34 169 61 160 83 146M191 145 211 153 204 165 179 159 158 145" fill="#347d60"/>
  <path d="M55 124 73 95 109 89 135 103 157 83 184 90 198 110 188 143 161 159 92 160 62 146Z" fill="url(#scales)"/>
  <path d="M129 105 157 79 182 76 202 89 194 112 173 121 150 121Z" fill="#7fbf7b"/>
  <path d="M169 79 174 56 186 69 198 61 199 82M154 82 148 61 163 72" fill="#d6d29a"/>
  <path d="M197 97 223 101 231 111 220 117 199 114Z" fill="#a0d081"/>
  <path d="M221 109 230 105 232 111 226 115Z" fill="#f7d870"/>
  <path d="M78 139 70 169 89 177 102 155M142 145 151 171 171 173 165 154" fill="#2a5c4e"/>
 </g>
 <g fill="#c8e98b"><path d="M90 96 104 102 99 115 86 111Z"/><path d="M131 100 144 91 150 105 138 112Z"/><path d="M102 132 119 124 131 135 118 145Z"/></g>
 <g filter="url(#gl)"><path d="M180 91 192 95 189 102 178 100Z" fill="#fff7ad"/><circle cx="185" cy="96" r="3" fill="#fff"/></g>
 <g fill="#9cdd82"><rect x="70" y="82" width="8" height="4"/><rect x="92" y="77" width="6" height="4"/><rect x="118" y="83" width="7" height="4"/><rect x="143" y="123" width="5" height="4"/></g>
</svg>